<?xml version="1.0" encoding="utf-8"?>
<!-- Generator: Adobe Illustrator 18.0.0, SVG Export Plug-In . SVG Version: 6.00 Build 0)  -->
<!DOCTYPE svg PUBLIC "-//W3C//DTD SVG 1.1//EN" "http://www.w3.org/Graphics/SVG/1.1/DTD/svg11.dtd">
<svg version="1.1" id="Layer_1" xmlns="http://www.w3.org/2000/svg" xmlns:xlink="http://www.w3.org/1999/xlink" x="0px" y="0px"
	 viewBox="0 0 64 64" enable-background="new 0 0 64 64" xml:space="preserve">
<g>
	<g>
		<path d="M10,48.4c-0.8,0-1.5-0.3-2.1-0.8c-0.6-0.6-1-1.3-1-2.2V41H6c-3.3,0-6-2.7-6-6V13c0-3.3,2.7-6,6-6h32c3.3,0,6,2.7,6,6v22
			c0,3.3-2.7,6-6,6H17.9l-5.7,6.4C11.7,48,10.9,48.4,10,48.4z M6,11c-1.1,0-2,0.9-2,2v22c0,1.1,0.9,2,2,2h5v5.7l5.1-5.7H38
			c1.1,0,2-0.9,2-2V13c0-1.1-0.9-2-2-2H6z"/>
	</g>
</g>
<g>
	<g>
		<path d="M54,56.4c-0.8,0-1.6-0.4-2.2-1L46.1,49H26c-3.3,0-6-2.7-6-6v-4h4v4c0,1.1,0.9,2,2,2h21.9l5.1,5.7V45h5c1.1,0,2-0.9,2-2V21
			c0-1.1-0.9-2-2-2H42v-4h16c3.3,0,6,2.7,6,6v22c0,3.3-2.7,6-6,6h-1v4.4c0,1.3-0.8,2.4-1.9,2.8C54.7,56.3,54.3,56.4,54,56.4z"/>
	</g>
</g>
</svg>
